# xmcd CD database file
# Generated: Sun Feb 23 14:16:52 2003 by KSCD
# 
# Track frame offsets:
#       150
#       13790
#       25812
#       37380
#       52530
#       61070
#       83625
#       96502
#       109732
#       120005
#       130992
#
# Disc length: 1912 seconds
#
# Revision: 1
# Processed by: cddbd v1.4PL0 Copyright (c) Steve Scherf et al.
# Submitted via: Kscd 1.3.3
#
DISCID=8207760b
DTITLE=The Riptones - Cowboy's Inn
DYEAR=1900
DGENRE=
TTITLE0=I can't and I won't
TTITLE1=Crazy Charlie
TTITLE2=Mama's Boy
TTITLE3=Run Around Man
TTITLE4=Go be and Do
TTITLE5=Jack's Last time
TTITLE6=Hey You're Gonna Pay
TTITLE7='TIll the Bottom Drops out
TTITLE8=Big Timber
TTITLE9=Otis Hayes
TTITLE10=Barbedwire Scars
EXTD=
EXTT0=
EXTT1=
EXTT2=
EXTT3=
EXTT4=
EXTT5=
EXTT6=
EXTT7=
EXTT8=
EXTT9=
EXTT10=
PLAYORDER=
